<?xml version="1.0" standalone="no"?>
<!DOCTYPE svg PUBLIC "-//W3C//DTD SVG 20010904//EN"
 "http://www.w3.org/TR/2001/REC-SVG-20010904/DTD/svg10.dtd">
<svg version="1.0" xmlns="http://www.w3.org/2000/svg"
 width="700.000000pt" height="700.000000pt" viewBox="0 0 700.000000 700.000000"
 preserveAspectRatio="xMidYMid meet">
<metadata>
Created by potrace 1.14, written by Peter Selinger 2001-2017
</metadata>
<g transform="translate(0.000000,700.000000) scale(0.100000,-0.100000)"
fill="#000000" stroke="none">
<path d="M2988 6802 c-14 -9 -38 -33 -53 -52 -16 -19 -48 -56 -73 -81 l-44
-46 8 -59 c13 -100 4 -346 -15 -412 -5 -18 -10 -36 -11 -40 -1 -4 -10 -27 -21
-51 -10 -24 -19 -47 -19 -52 0 -5 -4 -9 -10 -9 -5 0 -10 -5 -10 -10 0 -21 -96
-158 -200 -285 -115 -142 -159 -190 -450 -494 -79 -83 -148 -157 -151 -164 -4
-7 5 -42 21 -77 16 -36 35 -86 41 -112 7 -27 18 -48 25 -48 6 0 40 32 75 72
35 39 75 83 89 97 14 15 43 47 65 72 22 25 72 81 112 125 39 43 80 89 91 101
16 19 152 166 268 289 87 92 175 192 216 244 23 30 45 57 48 60 17 15 92 143
113 190 39 90 50 147 51 254 1 196 -33 350 -100 458 -30 48 -36 50 -66 30z"/>
<path d="M3913 6785 c-33 -39 -87 -189 -102 -280 -11 -72 -11 -250 0 -308 14
-72 17 -81 40 -132 21 -47 89 -162 116 -195 7 -8 26 -33 43 -55 33 -42 119
-141 184 -209 76 -81 252 -271 296 -321 25 -27 48 -52 51 -55 5 -5 63 -70 189
-210 41 -46 105 -116 142 -154 l66 -70 17 59 c10 33 28 84 42 114 14 31 22 64
19 75 -3 12 -60 77 -127 146 -238 245 -328 342 -419 450 -30 36 -57 67 -60 70
-18 18 -105 137 -145 200 -27 41 -56 86 -65 100 -28 42 -59 146 -67 222 -8 93
-9 278 -1 345 3 29 3 53 -1 55 -3 2 -40 40 -81 86 -97 109 -101 111 -137 67z"/>
<path d="M2575 6771 c-35 -22 -166 -150 -285 -281 -47 -51 -92 -100 -101 -109
-19 -19 -108 -118 -204 -224 -38 -43 -86 -96 -105 -116 -19 -21 -71 -78 -115
-126 -107 -117 -115 -126 -230 -250 -55 -60 -113 -122 -128 -139 -16 -17 -54
-58 -85 -91 -170 -181 -335 -364 -431 -475 -46 -52 -93 -106 -105 -120 -12
-14 -42 -50 -67 -80 -24 -30 -47 -57 -50 -60 -11 -10 -156 -206 -196 -267 -70
-102 -130 -223 -162 -323 -42 -131 -79 -281 -87 -354 -14 -119 -9 -393 11
-596 2 -25 6 -76 9 -115 3 -38 8 -83 10 -100 3 -16 8 -70 11 -120 4 -49 8 -92
10 -95 2 -3 6 -45 10 -95 3 -49 8 -97 10 -105 2 -8 7 -58 10 -110 4 -52 9
-103 11 -114 2 -10 6 -53 9 -95 3 -42 8 -92 11 -112 2 -19 7 -62 9 -95 3 -32
7 -78 10 -101 3 -23 7 -68 10 -100 3 -32 8 -76 10 -98 2 -22 7 -71 10 -110 4
-38 9 -86 11 -105 2 -19 6 -64 9 -100 3 -36 8 -84 10 -107 3 -23 8 -68 10
-100 3 -32 7 -80 10 -108 3 -27 8 -75 11 -105 3 -30 7 -71 9 -90 2 -19 7 -66
10 -105 3 -38 8 -88 10 -110 4 -37 9 -90 20 -210 10 -103 17 -130 43 -158 14
-15 30 -27 36 -27 5 0 17 -7 26 -15 27 -24 61 -5 153 87 114 114 267 307 394
498 143 214 219 374 294 615 64 208 118 536 113 695 -3 88 -14 297 -19 345 -2
22 -6 83 -10 135 -12 177 -14 195 -19 260 -4 36 -9 94 -11 130 -3 36 -7 86
-10 112 -3 26 -7 85 -11 130 -3 46 -7 101 -9 123 -2 22 -7 112 -11 200 -6 150
-5 164 14 200 25 48 57 93 109 148 225 245 311 377 332 512 12 77 7 321 -8
358 -6 15 -9 27 -6 27 2 0 -2 19 -11 43 -43 127 -97 185 -170 184 -41 0 -48
-5 -107 -67 -106 -112 -301 -322 -363 -390 -32 -35 -68 -74 -79 -85 -77 -80
-183 -207 -216 -258 -78 -121 -150 -292 -165 -393 -17 -114 -5 -345 32 -599 2
-16 6 -83 9 -148 6 -132 -5 -167 -52 -167 -38 0 -57 56 -68 199 -3 42 -8 99
-10 126 -25 282 -23 589 5 685 5 17 7 30 5 30 -2 0 2 18 10 40 8 22 12 40 10
40 -2 0 10 33 26 73 32 74 112 202 171 271 43 51 112 132 151 175 16 19 83 93
147 166 64 73 131 147 147 166 17 19 54 61 83 94 114 130 173 178 233 189 31
5 127 -21 150 -42 18 -16 22 -13 100 69 68 70 133 140 282 303 6 6 42 47 80
91 39 44 75 84 81 90 20 18 219 259 263 318 81 110 97 173 94 367 -2 168 -40
317 -94 371 -23 23 -27 24 -64 0z"/>
<path d="M4308 6758 c-26 -35 -54 -104 -62 -153 -3 -16 -10 -52 -15 -80 -15
-78 -7 -301 13 -358 15 -44 76 -144 108 -178 7 -8 25 -30 40 -51 15 -20 33
-42 40 -50 7 -7 38 -42 68 -78 30 -36 61 -72 70 -81 8 -8 40 -44 70 -79 30
-35 60 -68 65 -74 157 -173 222 -244 282 -306 39 -41 81 -85 92 -98 17 -20 23
-22 43 -11 13 6 25 16 28 20 15 23 136 27 176 6 40 -21 137 -118 271 -273 20
-23 120 -137 197 -224 27 -30 52 -57 55 -60 18 -16 186 -215 229 -272 151
-200 201 -373 201 -693 0 -60 -2 -135 -3 -165 -2 -30 -7 -102 -10 -160 -20
-304 -33 -379 -71 -394 -10 -3 -26 4 -41 19 -23 23 -25 35 -26 116 -1 31 11
164 17 199 2 14 6 54 9 90 3 36 8 75 10 87 15 75 22 277 12 380 -12 135 -132
396 -235 513 -87 98 -153 170 -312 341 -64 68 -138 148 -165 178 -27 29 -79
85 -116 124 l-67 70 -46 -5 c-98 -11 -164 -123 -190 -323 -13 -92 -7 -257 12
-335 10 -45 53 -131 95 -193 45 -67 54 -78 174 -212 101 -113 151 -178 169
-221 14 -34 14 -179 1 -331 -4 -37 -9 -99 -11 -138 -2 -38 -6 -92 -9 -120 -3
-27 -8 -84 -11 -125 -5 -78 -11 -144 -20 -245 -6 -67 -11 -139 -20 -265 -3
-47 -8 -119 -11 -160 -10 -124 -11 -360 -2 -414 4 -28 11 -73 13 -101 3 -27 7
-57 10 -65 2 -8 7 -33 10 -55 7 -53 13 -82 20 -105 3 -10 7 -27 9 -37 28 -139
114 -381 184 -518 143 -283 530 -784 647 -839 33 -16 36 -16 67 6 51 35 78 67
79 91 0 12 2 31 3 42 2 11 7 58 11 105 4 47 9 96 10 110 2 14 6 52 9 85 4 33
8 80 11 105 3 25 7 72 10 105 9 104 16 179 20 215 4 33 11 103 20 200 3 25 7
72 10 105 3 33 7 76 10 95 2 19 7 69 10 110 3 41 7 91 10 110 3 19 7 64 10
100 3 36 7 81 10 100 3 19 7 64 10 100 3 36 8 81 10 100 2 19 7 69 11 110 3
41 8 89 9 105 2 17 6 66 10 109 4 44 8 87 10 95 1 9 6 52 10 96 4 44 8 96 10
115 3 31 6 63 20 204 3 21 7 68 10 105 3 36 7 84 9 106 9 86 19 264 19 355 1
95 -10 268 -18 280 -2 4 -7 21 -10 39 -3 17 -12 55 -20 84 -8 28 -17 63 -20
77 -4 14 -9 32 -13 40 -3 8 -6 17 -7 20 -3 12 -27 86 -32 100 -4 8 -7 17 -7
20 -11 48 -164 287 -275 430 -58 75 -207 257 -221 270 -3 3 -36 41 -75 85 -38
44 -86 98 -107 120 -20 22 -47 52 -60 66 -29 33 -192 209 -238 259 -67 72
-247 265 -271 291 -13 15 -58 64 -99 109 -41 45 -91 99 -110 120 -19 21 -66
73 -105 115 -38 43 -83 93 -100 111 -16 17 -64 69 -105 115 -307 340 -469 499
-508 499 -5 0 -21 -15 -34 -32z"/>
<path d="M3144 5903 c-11 -10 -33 -38 -47 -63 -31 -52 -38 -61 -178 -211 -57
-62 -115 -124 -129 -139 -32 -35 -215 -231 -259 -279 -18 -20 -52 -56 -75 -81
-23 -25 -93 -101 -156 -170 -62 -69 -135 -147 -161 -175 -117 -125 -113 -117
-115 -219 -1 -50 -7 -113 -13 -140 -7 -27 -9 -51 -6 -54 3 -3 23 15 46 39 97
104 214 231 231 252 11 12 54 60 96 106 42 46 89 98 104 115 14 17 44 49 65
72 33 35 59 64 160 180 35 40 148 168 189 213 23 26 50 57 60 70 10 13 28 33
39 45 114 121 157 209 181 371 3 22 8 43 10 46 2 3 -2 14 -9 23 -12 16 -14 16
-33 -1z"/>
<path d="M3777 5908 c-7 -20 1 -75 24 -163 28 -110 48 -152 104 -216 49 -55
54 -62 165 -189 36 -41 67 -77 70 -80 3 -3 39 -43 80 -90 41 -47 80 -90 85
-96 6 -6 37 -41 70 -79 33 -37 74 -82 90 -100 17 -17 44 -48 60 -67 17 -20 67
-76 112 -125 45 -48 90 -97 100 -109 59 -68 207 -224 213 -224 4 0 2 28 -5 63
-6 35 -13 99 -14 142 -1 44 -5 85 -9 91 -4 7 -41 49 -82 95 -86 95 -83 91
-210 229 -52 56 -106 115 -120 130 -14 15 -66 71 -117 126 -50 54 -104 113
-119 129 -31 34 -229 248 -320 345 -33 36 -71 83 -84 105 -25 43 -69 95 -81
95 -4 0 -9 -6 -12 -12z"/>
<path d="M2617 4897 c-12 -13 -50 -54 -83 -92 -34 -39 -78 -88 -99 -110 -21
-22 -60 -65 -89 -96 -70 -75 -268 -289 -286 -309 -8 -9 -58 -63 -110 -120 -52
-58 -104 -114 -115 -125 -11 -12 -60 -66 -110 -120 -49 -54 -97 -105 -105
-113 -8 -9 -27 -31 -41 -49 -28 -35 -27 -24 -20 -210 1 -33 21 -48 21 -16 0 9
3 13 6 10 4 -4 14 2 23 12 9 10 65 71 125 135 60 64 117 125 125 135 13 15 85
94 208 229 121 132 347 385 373 416 8 10 34 40 58 66 23 26 52 61 64 76 12 16
25 31 28 34 28 24 94 227 83 255 -8 22 -31 18 -56 -8z"/>
<path d="M4285 4874 c11 -83 63 -205 110 -259 14 -16 36 -41 47 -55 36 -43
232 -263 253 -285 18 -19 123 -137 165 -185 8 -10 53 -59 100 -110 47 -51 93
-102 103 -114 22 -25 200 -216 274 -294 36 -37 54 -50 58 -41 10 27 12 184 2
204 -8 17 -124 149 -202 230 -27 29 -194 211 -214 234 -9 10 -61 66 -116 126
-142 152 -150 161 -246 266 -48 52 -110 118 -137 148 -28 30 -70 78 -94 107
-40 48 -74 74 -99 74 -7 0 -8 -17 -4 -46z"/>
<path d="M2565 3973 c-101 -9 -237 -49 -340 -100 -106 -53 -182 -108 -266
-193 -134 -135 -212 -274 -260 -459 -24 -92 -28 -124 -27 -248 0 -78 5 -161
11 -185 58 -249 177 -447 353 -588 118 -94 215 -143 399 -200 66 -20 260 -29
365 -17 241 29 487 167 654 370 l23 28 29 -38 c87 -115 261 -241 408 -297 149
-57 214 -68 386 -68 251 1 476 92 678 276 35 32 125 145 161 203 36 57 104
219 115 273 36 176 36 308 1 484 -17 82 -61 188 -123 291 -104 172 -288 327
-482 403 -148 59 -352 81 -523 59 -133 -18 -318 -95 -437 -182 -66 -49 -169
-148 -197 -192 l-16 -24 -31 38 c-153 187 -394 326 -622 359 -44 6 -214 11
-259 7z"/>
</g>
</svg>
